<svg xmlns="http://www.w3.org/2000/svg" viewBox="0 0 860 200" width="860" height="200">
  <rect width="860" height="200" fill="#0f172a" rx="12"/>

  <!-- metric cards -->
  <!-- Card 1 -->
  <rect x="20" y="20" width="190" height="160" rx="10" fill="#1e293b" stroke="#1d4ed8" stroke-width="1"/>
  <rect x="20" y="20" width="190" height="4" rx="4" fill="#3b82f6"/>
  <text x="115" y="72" font-family="ui-monospace,monospace" font-size="30" fill="#93c5fd" text-anchor="middle" font-weight="700">321K</text>
  <text x="115" y="96" font-family="ui-sans-serif,sans-serif" font-size="11" fill="#60a5fa" text-anchor="middle" font-weight="600">RAW EVENTS</text>
  <text x="115" y="115" font-family="ui-sans-serif,sans-serif" font-size="10" fill="#475569" text-anchor="middle">90 days · 4 sources</text>
  <rect x="40" y="135" width="150" height="26" rx="6" fill="#172554"/>
  <text x="115" y="152" font-family="ui-monospace,monospace" font-size="10" fill="#3b82f6" text-anchor="middle">staging.stg_stream_events</text>

  <!-- Card 2 -->
  <rect x="228" y="20" width="190" height="160" rx="10" fill="#1e293b" stroke="#7c3aed" stroke-width="1"/>
  <rect x="228" y="20" width="190" height="4" rx="4" fill="#8b5cf6"/>
  <text x="323" y="72" font-family="ui-monospace,monospace" font-size="30" fill="#c4b5fd" text-anchor="middle" font-weight="700">275K</text>
  <text x="323" y="96" font-family="ui-sans-serif,sans-serif" font-size="11" fill="#a78bfa" text-anchor="middle" font-weight="600">CLEAN EVENTS</text>
  <text x="323" y="115" font-family="ui-sans-serif,sans-serif" font-size="10" fill="#475569" text-anchor="middle">85.78% pass rate</text>
  <rect x="248" y="135" width="150" height="26" rx="6" fill="#1e1b4b"/>
  <text x="323" y="152" font-family="ui-monospace,monospace" font-size="10" fill="#8b5cf6" text-anchor="middle">analytics.fact_streams</text>

  <!-- Card 3 -->
  <rect x="436" y="20" width="190" height="160" rx="10" fill="#1e293b" stroke="#065f46" stroke-width="1"/>
  <rect x="436" y="20" width="190" height="4" rx="4" fill="#10b981"/>
  <text x="531" y="72" font-family="ui-monospace,monospace" font-size="30" fill="#6ee7b7" text-anchor="middle" font-weight="700">2.6×</text>
  <text x="531" y="96" font-family="ui-sans-serif,sans-serif" font-size="11" fill="#34d399" text-anchor="middle" font-weight="600">PREMIUM UPLIFT</text>
  <text x="531" y="115" font-family="ui-sans-serif,sans-serif" font-size="10" fill="#475569" text-anchor="middle">497 vs 189 plays/user</text>
  <rect x="456" y="135" width="150" height="26" rx="6" fill="#022c22"/>
  <text x="531" y="152" font-family="ui-monospace,monospace" font-size="10" fill="#10b981" text-anchor="middle">Free vs Premium · Q3</text>

  <!-- Card 4 -->
  <rect x="644" y="20" width="196" height="160" rx="10" fill="#1e293b" stroke="#92400e" stroke-width="1"/>
  <rect x="644" y="20" width="196" height="4" rx="4" fill="#f59e0b"/>
  <text x="742" y="72" font-family="ui-monospace,monospace" font-size="30" fill="#fcd34d" text-anchor="middle" font-weight="700">41K</text>
  <text x="742" y="96" font-family="ui-sans-serif,sans-serif" font-size="11" fill="#fbbf24" text-anchor="middle" font-weight="600">ROWS/SEC</text>
  <text x="742" y="115" font-family="ui-sans-serif,sans-serif" font-size="10" fill="#475569" text-anchor="middle">psycopg2 batch insert</text>
  <rect x="664" y="135" width="156" height="26" rx="6" fill="#1c1400"/>
  <text x="742" y="152" font-family="ui-monospace,monospace" font-size="10" fill="#f59e0b" text-anchor="middle">execute_values · 5k batch</text>
</svg>